<mxfile host="65bd71144e">
    <diagram id="i0bqvcRtrR0I4ZqiqYnq" name="Page-1">
        <mxGraphModel dx="531" dy="831" grid="1" gridSize="10" guides="1" tooltips="1" connect="1" arrows="1" fold="1" page="1" pageScale="1" pageWidth="850" pageHeight="1100" math="0" shadow="0">
            <root>
                <mxCell id="0"/>
                <mxCell id="1" parent="0"/>
                <mxCell id="2" value="Start" style="ellipse;shape=doubleEllipse;whiteSpace=wrap;html=1;aspect=fixed;fillColor=#000000;strokeColor=#FFFFFF;fillStyle=solid;gradientColor=none;fontColor=#FFFFFF;labelBackgroundColor=#000000;" parent="1" vertex="1">
                    <mxGeometry x="40" y="80" width="80" height="80" as="geometry"/>
                </mxCell>
                <mxCell id="3" value="State0" style="ellipse;whiteSpace=wrap;html=1;aspect=fixed;fillColor=#000000;strokeColor=#FFFFFF;fillStyle=solid;gradientColor=none;fontColor=#FFFFFF;labelBackgroundColor=#000000;" parent="1" vertex="1">
                    <mxGeometry x="160" y="200" width="80" height="80" as="geometry"/>
                </mxCell>
                <mxCell id="4" value="State1" style="ellipse;whiteSpace=wrap;html=1;aspect=fixed;fillColor=#000000;strokeColor=#FFFFFF;fillStyle=solid;gradientColor=none;fontColor=#FFFFFF;labelBackgroundColor=#000000;" parent="1" vertex="1">
                    <mxGeometry x="400" y="200" width="80" height="80" as="geometry"/>
                </mxCell>
                <mxCell id="5" value="State2" style="ellipse;whiteSpace=wrap;html=1;aspect=fixed;fillColor=#000000;strokeColor=#FFFFFF;fillStyle=solid;gradientColor=none;fontColor=#FFFFFF;labelBackgroundColor=#000000;" parent="1" vertex="1">
                    <mxGeometry x="280" y="360" width="80" height="80" as="geometry"/>
                </mxCell>
                <mxCell id="6" value="" style="endArrow=classic;html=1;exitX=1;exitY=1;exitDx=0;exitDy=0;entryX=0;entryY=0;entryDx=0;entryDy=0;fillColor=#b1ddf0;strokeColor=#10739e;" parent="1" source="2" target="3" edge="1">
                    <mxGeometry width="50" height="50" relative="1" as="geometry">
                        <mxPoint x="470" y="250" as="sourcePoint"/>
                        <mxPoint x="520" y="200" as="targetPoint"/>
                    </mxGeometry>
                </mxCell>
                <mxCell id="7" value="if button released before 1 &lt;br&gt;second passes" style="endArrow=classic;html=1;exitX=0;exitY=1;exitDx=0;exitDy=0;entryX=1;entryY=1;entryDx=0;entryDy=0;fontColor=#FFFFFF;labelBackgroundColor=none;fillColor=#b1ddf0;strokeColor=#10739e;spacingLeft=1;" parent="1" source="4" target="3" edge="1">
                    <mxGeometry y="22" width="50" height="50" relative="1" as="geometry">
                        <mxPoint x="470" y="250" as="sourcePoint"/>
                        <mxPoint x="520" y="200" as="targetPoint"/>
                        <mxPoint as="offset"/>
                    </mxGeometry>
                </mxCell>
                <mxCell id="8" value="if button pressed" style="endArrow=classic;html=1;exitX=1;exitY=0;exitDx=0;exitDy=0;entryX=0;entryY=0;entryDx=0;entryDy=0;fontColor=#FFFFFF;labelBackgroundColor=none;fillColor=#b1ddf0;strokeColor=#10739e;spacingLeft=1;" parent="1" source="3" target="4" edge="1">
                    <mxGeometry y="12" width="50" height="50" relative="1" as="geometry">
                        <mxPoint x="470" y="250" as="sourcePoint"/>
                        <mxPoint x="520" y="200" as="targetPoint"/>
                        <mxPoint as="offset"/>
                    </mxGeometry>
                </mxCell>
                <mxCell id="9" value="if button still pressed&amp;nbsp;&lt;br&gt;after 1 second" style="endArrow=classic;html=1;exitX=0.5;exitY=1;exitDx=0;exitDy=0;entryX=1;entryY=0;entryDx=0;entryDy=0;fontColor=#FFFFFF;labelBackgroundColor=none;fillColor=#b1ddf0;strokeColor=#10739e;spacingLeft=1;" parent="1" source="4" target="5" edge="1">
                    <mxGeometry x="-0.2368" y="49" width="50" height="50" relative="1" as="geometry">
                        <mxPoint x="421.71572875253787" y="278.28427124746213" as="sourcePoint"/>
                        <mxPoint x="238.2842712474619" y="278.2842712474619" as="targetPoint"/>
                        <mxPoint y="1" as="offset"/>
                    </mxGeometry>
                </mxCell>
                <mxCell id="10" value="auto" style="endArrow=classic;html=1;exitX=0;exitY=0;exitDx=0;exitDy=0;entryX=0.5;entryY=1;entryDx=0;entryDy=0;fontColor=#FFFFFF;labelBackgroundColor=none;fillColor=#b1ddf0;strokeColor=#10739e;spacingLeft=1;" parent="1" source="5" target="3" edge="1">
                    <mxGeometry x="0.1277" y="14" width="50" height="50" relative="1" as="geometry">
                        <mxPoint x="431.71572875253787" y="288.28427124746213" as="sourcePoint"/>
                        <mxPoint x="248.2842712474619" y="288.2842712474619" as="targetPoint"/>
                        <mxPoint as="offset"/>
                    </mxGeometry>
                </mxCell>
            </root>
        </mxGraphModel>
    </diagram>
</mxfile>